<svg t="1622384307985" class="icon" viewBox="0 0 1024 1024" version="1.1" xmlns="http://www.w3.org/2000/svg" p-id="3913" data-spm-anchor-id="a313x.7781069.0.i1" width="200" height="200"><path d="M402.7 507.4m-295.1 0a295.1 295.1 0 1 0 590.2 0 295.1 295.1 0 1 0-590.2 0Z" fill="#FFFFFF" p-id="3914"></path><path d="M562 288.8c11.4 70.9-0.8 146-39.8 212.8C438.5 645.3 260.4 700 112 632.8c22 29.2 50 54.6 83.6 74.1 135.1 78.8 308.5 33.1 387.3-102 59.8-102.7 47.8-227.6-20.9-316.1z" fill="#E0E0E0" p-id="3915"></path><path d="M362.7 184.5c-164.9 0-299 134.1-299 299s134.1 299 299 299 299-134.1 299-299c0-164.8-134.1-299-299-299z m273.1 225.6l-23.2-12.5c-8.9-53.9-42.2-101-65.6-128.3 42.3 36.4 73.8 85.2 88.8 140.8zM500.5 631.4l-98.1-26.5-19.2-86.4 71.6-80.1 100.7 30.7 16.8 102.1-71.8 60.2zM302 687.8l-116.7-62.3 2.1-96.9 79.8-51.3 100.2 44.6 19 85.4-84.4 80.5zM110.2 463c-0.6-22.3 2.5-84.2 47.5-153.3l56-12.6 56.3 54-12.3 113-76.1 48.9-71.4-50z m450.5-9.2L463.1 424l-58.6-103 35.8-67.3 73.7 3.9c11 10.6 70.9 71.5 82.6 142.7l-35.9 53.5zM391.6 202.2l34 44.6-36.3 68.2-108.7 23.8-53.3-51.1 15.9-60.4c36.3-17 76.8-26.5 119.5-26.5 9.8 0 19.4 0.5 28.9 1.4zM133.7 317.9c-45.7 80-40 146.6-39.1 155.2l-14.2 26.8c-0.3-5.4-0.5-10.9-0.5-16.3 0-61.9 20-119.1 53.8-165.7z m-1.6 329.2l35.9-12.4 139.8 74.7 0.5-0.9 41.9 39.4-6.8 17.8c-87-5.9-163.5-51.4-211.3-118.6z m228.5 119.2l6.1-16c22.3-4.4 72.9-15.1 114.6-30.2l14.6 12.8c-39.7 21.3-85 33.4-133.2 33.4h-2.1z m150.1-41.9l-16.8-14.7 11.2-61 77.5-65 39.5 12.4c-23.2 53.2-62.3 98-111.4 128.3zM957.5 804.7c-1.5 1.5-3.6 2.5-5.9 2.7l-74.8 6c-5.2 0.4-9.7-3.5-10.2-8.7-0.4-5.2 3.5-9.7 8.7-10.2l74.8-6c5.2-0.4 9.7 3.5 10.2 8.7 0.2 3-0.9 5.7-2.8 7.5zM840.4 814.1c-1.5 1.5-3.6 2.5-5.9 2.7l-281.6 22.6c-5.2 0.4-9.7-3.5-10.2-8.7-0.4-5.2 3.5-9.7 8.7-10.2L832.9 798c5.2-0.4 9.7 3.5 10.2 8.7 0.2 2.9-0.9 5.5-2.7 7.4zM902.8 730.4c-1.6 1.6-3.7 2.6-6 2.7l-211.2 14.4c-5.2 0.4-9.7-3.6-10.1-8.8-0.4-5.2 3.6-9.7 8.8-10.1l211.2-14.4c5.2-0.4 9.7 3.6 10.1 8.8 0.1 2.9-0.9 5.5-2.8 7.4z" fill="#1296db" p-id="3916" data-spm-anchor-id="a313x.7781069.0.i0" class="selected"></path><path d="M806.5 688.5c-1.5 1.5-3.6 2.5-5.9 2.7l-74.8 6c-5.2 0.4-9.7-3.5-10.2-8.7-0.4-5.2 3.5-9.7 8.7-10.2l74.8-6c5.2-0.4 9.7 3.5 10.2 8.7 0.1 2.9-0.9 5.6-2.8 7.5z" fill="" p-id="3917"></path></svg>
